<svg id="cats" xmlns="http://www.w3.org/2000/svg" viewBox="0 0 512 512"><style></style><g id="cat"><path d="M230.7 338c16.9 6.2 28.9 22.4 28.9 41.4 0-19 12-35.2 28.9-41.4-9.2 2.3-18.9 3.6-28.9 3.6s-19.6-1.3-28.9-3.6z"/><path d="M468.7 334.7l-81-271.1c-1.7-5.8-6.5-9.5-12.2-9.5-3.2 0-6.3 1.2-8.9 3.5L81.5 309.1c-1 .9-1.7 2.1-1.7 3.6 0 2.6 2.1 4.7 4.7 4.7 1.2 0 2.3-.5 3.1-1.2L372.8 64.6c.9-.8 1.8-1.2 2.7-1.2 1.4 0 2.6 1 3.2 2.8l81.1 271.1c.9 3-.6 6.6-3.3 8.2l-192.2 111c-1 .6-2.2.9-3.5 1.1-.4 0-.9.1-1.3.1s-.9 0-1.3-.1c-1.3-.1-2.5-.5-3.5-1.1l-192.2-111c-2.7-1.5-4.1-5.2-3.3-8.2l81.1-271.1c.5-1.8 1.8-2.8 3.2-2.8.9 0 1.8.4 2.7 1.2l87.4 77.1c.8.7 1.9 1.2 3.1 1.2 2.6 0 4.7-2.1 4.7-4.7 0-1.4-.6-2.6-1.6-3.5l-87.4-77.1c-2.6-2.3-5.7-3.5-8.9-3.5-5.7 0-10.4 3.7-12.2 9.5L50 334.7c-2.1 7.1 1.1 15.3 7.6 19l46.3 26.7 145.9 84.3c.4.2.9.5 1.3.7.9.4 1.7.7 2.6 1 1.3.4 2.5.6 3.6.7.7.1 1.4.1 2 .1 1.3 0 2.9-.1 4.7-.5 1.6-.4 3.2-.9 4.8-1.9l108-62.3 83.6-48.2.7-.4c6.5-3.9 9.8-12.1 7.6-19.2z"/><path d="M270.3 209.9c-2.4-4.1-6.4-6.6-10.7-6.6-4.4 0-8.4 2.5-10.7 6.6l-89.4 154.8c-1.9 3.4-2.5 7.3-1.5 11.1s3.4 6.9 6.8 8.9l85.6 49.4c3.3 1.9 6.9 2.3 9.2 2.3s5.9-.4 9.2-2.3l82.3-47.5c1.4-.8 2.3-2.3 2.3-4 0-2.6-2.1-4.7-4.7-4.7-.8 0-1.6.2-2.3.6L264.1 426c-1.2.7-2.9 1.1-4.5 1.1s-3.3-.4-4.5-1.1l-85.6-49.4c-2.5-1.4-3.3-4.6-1.9-7.1L257 214.6c.7-1.2 1.7-1.9 2.6-1.9.9 0 1.9.6 2.6 1.9l85.4 147.7c.8 1.4 2.3 2.3 4.1 2.3 2.6 0 4.7-2.1 4.7-4.7 0-.9-.2-1.7-.6-2.3l-85.5-147.7z"/></g></svg>